<svg xmlns="http://www.w3.org/2000/svg" style="display: none;">
  <symbol id="github" viewBox="0 0 24 24" fill="currentColor" stroke="currentColor">
    <path d="M15 22v-4a4.8 4.8 0 0 0-1-3.5c3 0 6-2 6-5.5.08-1.25-.27-2.48-1-3.5.28-1.15.28-2.35 0-3.5 0 0-1 0-3 1.5-2.64-.5-5.36-.5-8 0C6 2 5 2 5 2c-.3 1.15-.3 2.35 0 3.5A5.403 5.403 0 0 0 4 9c0 3.5 3 5.5 6 5.5-.39.49-.68 1.05-.85 1.65-.17.6-.22 1.23-.15 1.85v4" />
    <path d="M9 18c-4.51 2-5-2-7-2" />
  </symbol>
  <symbol id="facebook" viewBox="0 0 1920 1920" fill="currentColor" stroke="currentColor">
    <path d="M1168.737 487.897c44.672-41.401 113.824-36.889 118.9-36.663l289.354-.113 6.317-417.504L1539.65 22.9C1511.675 16.02 1426.053 0 1237.324 0 901.268 0 675.425 235.206 675.425 585.137v93.97H337v451.234h338.425V1920h451.234v-789.66h356.7l62.045-451.233H1126.66v-69.152c0-54.937 14.214-96.112 42.078-122.058"/>
  </symbol>
  <symbol id="linkedin" viewBox="0 0 512 512" fill="currentColor" stroke="currentColor">
    <path d="M116.504,500.219V170.654H6.975v329.564H116.504L116.504,500.219z M61.751,125.674c38.183,0,61.968-25.328,61.968-56.953c-0.722-32.328-23.785-56.941-61.252-56.941C24.994,11.781,0.5,36.394,0.5,68.722c0,31.625,23.772,56.953,60.53,56.953H61.751L61.751,125.674z M177.124,500.219c0,0,1.437-298.643,0-329.564H286.67v47.794h-0.727c14.404-22.49,40.354-55.533,99.44-55.533c72.085,0,126.116,47.103,126.116,148.333v188.971H401.971V323.912c0-44.301-15.848-74.531-55.497-74.531c-30.254,0-48.284,20.38-56.202,40.08c-2.897,7.012-3.602,16.861-3.602,26.711v184.047H177.124L177.124,500.219z"/>
  </symbol>
  <symbol id="twitterx" viewBox="0 0 24 24" fill="currentColor" stroke="currentColor">
    <path d="M8 2H1l8.26 11.015L1.45 22H4.1l6.388-7.349L16 22h7l-8.608-11.478L21.8 2h-2.65l-5.986 6.886zm9 18L5 4h2l12 16z"/>
  </symbol>
  <symbol id="youtube" viewBox="0 0 32 32" fill="currentColor" stroke="currentColor">
    <path d="M12.932 20.459v-8.917l7.839 4.459zM30.368 8.735c-0.354-1.301-1.354-2.307-2.625-2.663l-0.027-0.006c-3.193-0.406-6.886-0.638-10.634-0.638-0.381 0-0.761 0.002-1.14 0.007l0.058-0.001c-0.322-0.004-0.701-0.007-1.082-0.007-3.748 0-7.443 0.232-11.070 0.681l0.434-0.044c-1.297 0.363-2.297 1.368-2.644 2.643l-0.006 0.026c-0.4 2.109-0.628 4.536-0.628 7.016 0 0.088 0 0.176 0.001 0.263l-0-0.014c-0 0.074-0.001 0.162-0.001 0.25 0 2.48 0.229 4.906 0.666 7.259l-0.038-0.244c0.354 1.301 1.354 2.307 2.625 2.663l0.027 0.006c3.193 0.406 6.886 0.638 10.634 0.638 0.38 0 0.76-0.002 1.14-0.007l-0.058 0.001c0.322 0.004 0.702 0.007 1.082 0.007 3.749 0 7.443-0.232 11.070-0.681l-0.434 0.044c1.298-0.362 2.298-1.368 2.646-2.643l0.006-0.026c0.399-2.109 0.627-4.536 0.627-7.015 0-0.088-0-0.176-0.001-0.263l0 0.013c0-0.074 0.001-0.162 0.001-0.25 0-2.48-0.229-4.906-0.666-7.259l0.038 0.244z"/>
  </symbol>
  <symbol id="instagram" viewBox="0 0 32 32" fill="currentColor" stroke="currentColor">
    <path d="M25.805 7.996c0 0 0 0.001 0 0.001 0 0.994-0.806 1.799-1.799 1.799s-1.799-0.806-1.799-1.799c0-0.994 0.806-1.799 1.799-1.799v0c0.993 0.001 1.798 0.805 1.799 1.798v0zM16 20.999c-2.761 0-4.999-2.238-4.999-4.999s2.238-4.999 4.999-4.999c2.761 0 4.999 2.238 4.999 4.999v0c0 0 0 0.001 0 0.001 0 2.76-2.237 4.997-4.997 4.997-0 0-0.001 0-0.001 0h0zM16 8.3c0 0 0 0-0 0-4.253 0-7.7 3.448-7.7 7.7s3.448 7.7 7.7 7.7c4.253 0 7.7-3.448 7.7-7.7v0c0-0 0-0 0-0.001 0-4.252-3.447-7.7-7.7-7.7-0 0-0 0-0.001 0h0zM16 3.704c4.003 0 4.48 0.020 6.061 0.089 1.003 0.012 1.957 0.202 2.84 0.538l-0.057-0.019c1.314 0.512 2.334 1.532 2.835 2.812l0.012 0.034c0.316 0.826 0.504 1.781 0.516 2.778l0 0.005c0.071 1.582 0.087 2.057 0.087 6.061s-0.019 4.48-0.092 6.061c-0.019 1.004-0.21 1.958-0.545 2.841l0.019-0.058c-0.258 0.676-0.64 1.252-1.123 1.726l-0.001 0.001c-0.473 0.484-1.049 0.866-1.692 1.109l-0.032 0.011c-0.829 0.316-1.787 0.504-2.788 0.516l-0.005 0c-1.592 0.071-2.061 0.087-6.072 0.087-4.013 0-4.481-0.019-6.072-0.092-1.008-0.019-1.966-0.21-2.853-0.545l0.059 0.019c-0.676-0.254-1.252-0.637-1.722-1.122l-0.001-0.001c-0.489-0.47-0.873-1.047-1.114-1.693l-0.010-0.031c-0.315-0.828-0.506-1.785-0.525-2.785l-0-0.008c-0.056-1.575-0.076-2.061-0.076-6.053 0-3.994 0.020-4.481 0.076-6.075 0.019-1.007 0.209-1.964 0.544-2.85l-0.019 0.059c0.247-0.679 0.632-1.257 1.123-1.724l0.002-0.002c0.468-0.492 1.045-0.875 1.692-1.112l0.031-0.010c0.823-0.318 1.774-0.509 2.768-0.526l0.007-0c1.593-0.056 2.062-0.075 6.072-0.075zM16 1.004c-4.074 0-4.582 0.019-6.182 0.090-1.315 0.028-2.562 0.282-3.716 0.723l0.076-0.025c-1.040 0.397-1.926 0.986-2.656 1.728l-0.001 0.001c-0.745 0.73-1.333 1.617-1.713 2.607l-0.017 0.050c-0.416 1.078-0.67 2.326-0.697 3.628l-0 0.012c-0.075 1.6-0.090 2.108-0.090 6.182s0.019 4.582 0.090 6.182c0.028 1.315 0.282 2.562 0.723 3.716l-0.025-0.076c0.796 2.021 2.365 3.59 4.334 4.368l0.052 0.018c1.078 0.415 2.326 0.669 3.628 0.697l0.012 0c1.6 0.075 2.108 0.090 6.182 0.090s4.582-0.019 6.182-0.090c1.315-0.029 2.562-0.282 3.716-0.723l-0.076 0.026c2.021-0.796 3.59-2.365 4.368-4.334l0.018-0.052c0.416-1.078 0.669-2.326 0.697-3.628l0-0.012c0.075-1.6 0.090-2.108 0.090-6.182s-0.019-4.582-0.090-6.182c-0.029-1.315-0.282-2.562-0.723-3.716l0.026 0.076c-0.398-1.040-0.986-1.926-1.729-2.656l-0.001-0.001c-0.73-0.745-1.617-1.333-2.607-1.713l-0.050-0.017c-1.078-0.416-2.326-0.67-3.628-0.697l-0.012-0c-1.6-0.075-2.108-0.090-6.182-0.090z"/>
  </symbol>
  <symbol id="wechat" viewBox="0 0 24 24" fill="currentColor" stroke="currentColor">
    <path d="M15.85 8.14c.39 0 .77.03 1.14.08C16.31 5.25 13.19 3 9.44 3c-4.25 0-7.7 2.88-7.7 6.43c0 2.05 1.15 3.86 2.94 5.04L3.67 16.5l2.76-1.19c.59.21 1.21.38 1.87.47c-.09-.39-.14-.79-.14-1.21c-.01-3.54 3.44-6.43 7.69-6.43M12 5.89a.96.96 0 1 1 0 1.92a.96.96 0 0 1 0-1.92M6.87 7.82a.96.96 0 1 1 0-1.92a.96.96 0 0 1 0 1.92"/>
    <path d="M22.26 14.57c0-2.84-2.87-5.14-6.41-5.14s-6.41 2.3-6.41 5.14s2.87 5.14 6.41 5.14c.58 0 1.14-.08 1.67-.2L20.98 21l-1.2-2.4c1.5-.94 2.48-2.38 2.48-4.03m-8.34-.32a.96.96 0 1 1 .96-.96c.01.53-.43.96-.96.96m3.85 0a.96.96 0 1 1 0-1.92a.96.96 0 0 1 0 1.92"/>
  </symbol>
  <symbol id="telegram" viewBox="0 0 32 32" fill="currentColor" stroke="currentColor">
    <path d="M29.919 6.163l-4.225 19.925c-0.319 1.406-1.15 1.756-2.331 1.094l-6.438-4.744-3.106 2.988c-0.344 0.344-0.631 0.631-1.294 0.631l0.463-6.556 11.931-10.781c0.519-0.462-0.113-0.719-0.806-0.256l-14.75 9.288-6.35-1.988c-1.381-0.431-1.406-1.381 0.288-2.044l24.837-9.569c1.15-0.431 2.156 0.256 1.781 2.013z"/>
  </symbol>
  <symbol id="snapchat" viewBox="0 0 32 32" fill="currentColor" stroke="currentColor">
    <path d="M16.257 1.995c0.029-0 0.064-0.001 0.099-0.001 3.249 0 6.044 1.94 7.291 4.725l0.020 0.051c0.333 1.18 0.524 2.534 0.524 3.934 0 0.749-0.055 1.485-0.161 2.205l0.010-0.082-0.004 0.075c-0.015 0.225-0.027 0.431-0.037 0.637 0.132 0.072 0.289 0.114 0.456 0.114 0.016 0 0.032-0 0.048-0.001l-0.002 0c0.478-0.045 0.916-0.179 1.31-0.385l-0.019 0.009c0.162-0.082 0.352-0.13 0.554-0.13 0.009 0 0.018 0 0.027 0l-0.001-0c0.008-0 0.017-0 0.026-0 0.219 0 0.429 0.041 0.622 0.117l-0.012-0.004c0.496 0.117 0.868 0.532 0.917 1.042l0 0.005q0.028 0.842-1.516 1.46c-0.111 0.036-0.261 0.094-0.43 0.149-0.562 0.169-1.423 0.45-1.666 1.012-0.036 0.114-0.056 0.244-0.056 0.38 0 0.262 0.077 0.506 0.209 0.71l-0.003-0.005 0.019 0.019c1.117 2.493 3.286 4.344 5.926 5.003l0.061 0.013c0.299 0.049 0.525 0.306 0.525 0.616 0 0.007-0 0.014-0 0.021l0-0.001c-0.001 0.102-0.021 0.198-0.058 0.286l0.002-0.005c-0.3 0.711-1.591 1.235-3.931 1.588-0.087 0.204-0.158 0.444-0.202 0.692l-0.003 0.020c-0.046 0.268-0.104 0.501-0.177 0.727l0.010-0.036c-0.069 0.293-0.329 0.508-0.638 0.508-0.019 0-0.039-0.001-0.058-0.003l0.002 0h-0.037c-0.246-0.013-0.476-0.046-0.699-0.098l0.027 0.005c-0.477-0.107-1.024-0.169-1.586-0.169-0.002 0-0.003 0-0.005 0h0c-0.024-0-0.053-0.001-0.082-0.001-0.374 0-0.74 0.034-1.096 0.099l0.037-0.006c-0.83 0.222-1.551 0.603-2.162 1.112l0.009-0.007c-1.108 0.944-2.536 1.541-4.102 1.609l-0.014 0c-0.075 0-0.149-0.019-0.225-0.019h-0.186c-1.575-0.060-3-0.659-4.106-1.617l0.008 0.007c-0.596-0.501-1.311-0.882-2.094-1.096l-0.039-0.009c-0.346-0.055-0.747-0.089-1.156-0.092l-0.004-0c-0.568 0.008-1.115 0.076-1.642 0.196l0.053-0.010c-0.199 0.049-0.43 0.082-0.667 0.092l-0.007 0c-0.016 0.001-0.034 0.002-0.052 0.002-0.325 0-0.597-0.222-0.675-0.522l-0.001-0.005c-0.076-0.24-0.112-0.486-0.169-0.709-0.047-0.269-0.119-0.508-0.216-0.734l0.008 0.022c-2.397-0.277-3.686-0.802-3.985-1.532-0.039-0.082-0.064-0.178-0.069-0.279l-0-0.002c-0-0.007-0-0.015-0-0.023 0-0.309 0.226-0.565 0.522-0.612l0.004-0c2.703-0.674 4.873-2.527 5.965-4.968l0.022-0.056 0.020-0.036c0.133-0.195 0.212-0.436 0.212-0.695 0-0.14-0.023-0.274-0.065-0.4l0.003 0.009c-0.244-0.542-1.105-0.822-1.665-1.011-0.168-0.043-0.312-0.094-0.45-0.156l0.018 0.007c-1.383-0.544-1.571-1.162-1.496-1.591 0.207-0.583 0.753-0.992 1.395-0.992 0.023 0 0.045 0.001 0.068 0.002l-0.003-0c0.001 0 0.002 0 0.004 0 0.171 0 0.334 0.034 0.483 0.096l-0.008-0.003c0.401 0.211 0.871 0.346 1.371 0.374l0.009 0c0.012 0 0.025 0.001 0.039 0.001 0.198 0 0.385-0.049 0.549-0.135l-0.006 0.003-0.057-0.711c-0.093-0.628-0.147-1.354-0.147-2.092 0-1.406 0.194-2.768 0.555-4.058l-0.025 0.106c1.237-2.815 4.001-4.746 7.216-4.746 0.044 0 0.088 0 0.131 0.001l-0.007-0 0.524-0.019h0.075z"/>
  </symbol>
  <symbol id="tiktok" viewBox="0 0 32 32" fill="currentColor" stroke="currentColor">
    <path d="M16.656 1.029c1.637-0.025 3.262-0.012 4.886-0.025 0.054 2.031 0.878 3.859 2.189 5.213l-0.002-0.002c1.411 1.271 3.247 2.095 5.271 2.235l0.028 0.002v5.036c-1.912-0.048-3.71-0.489-5.331-1.247l0.082 0.034c-0.784-0.377-1.447-0.764-2.077-1.196l0.052 0.034c-0.012 3.649 0.012 7.298-0.025 10.934-0.103 1.853-0.719 3.543-1.707 4.954l0.020-0.031c-1.652 2.366-4.328 3.919-7.371 4.011l-0.014 0c-0.123 0.006-0.268 0.009-0.414 0.009-1.73 0-3.347-0.482-4.725-1.319l0.040 0.023c-2.508-1.509-4.238-4.091-4.558-7.094l-0.004-0.041c-0.025-0.625-0.037-1.25-0.012-1.862 0.49-4.779 4.494-8.476 9.361-8.476 0.547 0 1.083 0.047 1.604 0.136l-0.056-0.008c0.025 1.849-0.050 3.699-0.050 5.548-0.423-0.153-0.911-0.242-1.42-0.242-1.868 0-3.457 1.194-4.045 2.861l-0.009 0.030c-0.133 0.427-0.21 0.918-0.21 1.426 0 0.206 0.013 0.41 0.037 0.61l-0.002-0.024c0.332 2.046 2.086 3.59 4.201 3.59 0.061 0 0.121-0.001 0.181-0.004l-0.009 0c1.463-0.044 2.733-0.831 3.451-1.994l0.010-0.018c0.267-0.372 0.45-0.822 0.511-1.311l0.001-0.014c0.125-2.237 0.075-4.461 0.087-6.698 0.012-5.036-0.012-10.060 0.025-15.083z"/>
  </symbol>
  <symbol id="discord" viewBox="0 0 32 32" fill="currentColor" stroke="currentColor">
    <path d="M20.992 20.163c-1.511-0.099-2.699-1.349-2.699-2.877 0-0.051 0.001-0.102 0.004-0.153l-0 0.007c-0.003-0.048-0.005-0.104-0.005-0.161 0-1.525 1.19-2.771 2.692-2.862l0.008-0c1.509 0.082 2.701 1.325 2.701 2.847 0 0.062-0.002 0.123-0.006 0.184l0-0.008c0.003 0.050 0.005 0.109 0.005 0.168 0 1.523-1.191 2.768-2.693 2.854l-0.008 0zM11.026 20.163c-1.511-0.099-2.699-1.349-2.699-2.877 0-0.051 0.001-0.102 0.004-0.153l-0 0.007c-0.003-0.048-0.005-0.104-0.005-0.161 0-1.525 1.19-2.771 2.692-2.862l0.008-0c1.509 0.082 2.701 1.325 2.701 2.847 0 0.062-0.002 0.123-0.006 0.184l0-0.008c0.003 0.048 0.005 0.104 0.005 0.161 0 1.525-1.19 2.771-2.692 2.862l-0.008 0zM26.393 6.465c-1.763-0.832-3.811-1.49-5.955-1.871l-0.149-0.022c-0.005-0.001-0.011-0.002-0.017-0.002-0.035 0-0.065 0.019-0.081 0.047l-0 0c-0.234 0.411-0.488 0.924-0.717 1.45l-0.043 0.111c-1.030-0.165-2.218-0.259-3.428-0.259s-2.398 0.094-3.557 0.275l0.129-0.017c-0.27-0.63-0.528-1.142-0.813-1.638l0.041 0.077c-0.017-0.029-0.048-0.047-0.083-0.047-0.005 0-0.011 0-0.016 0.001l0.001-0c-2.293 0.403-4.342 1.060-6.256 1.957l0.151-0.064c-0.017 0.007-0.031 0.019-0.040 0.034l-0 0c-2.854 4.041-4.562 9.069-4.562 14.496 0 0.907 0.048 1.802 0.141 2.684l-0.009-0.11c0.003 0.029 0.018 0.053 0.039 0.070l0 0c2.14 1.601 4.628 2.891 7.313 3.738l0.176 0.048c0.008 0.003 0.018 0.004 0.028 0.004 0.032 0 0.060-0.015 0.077-0.038l0-0c0.535-0.72 1.044-1.536 1.485-2.392l0.047-0.1c0.006-0.012 0.010-0.027 0.010-0.043 0-0.041-0.026-0.075-0.062-0.089l-0.001-0c-0.912-0.352-1.683-0.727-2.417-1.157l0.077 0.042c-0.029-0.017-0.048-0.048-0.048-0.083 0-0.031 0.015-0.059 0.038-0.076l0-0c0.157-0.118 0.315-0.24 0.465-0.364 0.016-0.013 0.037-0.021 0.059-0.021 0.014 0 0.027 0.003 0.038 0.008l-0.001-0c2.208 1.061 4.8 1.681 7.536 1.681s5.329-0.62 7.643-1.727l-0.107 0.046c0.012-0.006 0.025-0.009 0.040-0.009 0.022 0 0.043 0.008 0.059 0.021l-0-0c0.15 0.124 0.307 0.248 0.466 0.365 0.023 0.018 0.038 0.046 0.038 0.077 0 0.035-0.019 0.065-0.046 0.082l-0 0c-0.661 0.395-1.432 0.769-2.235 1.078l-0.105 0.036c-0.036 0.014-0.062 0.049-0.062 0.089 0 0.016 0.004 0.031 0.011 0.044l-0-0.001c0.501 0.96 1.009 1.775 1.571 2.548l-0.040-0.057c0.017 0.024 0.046 0.040 0.077 0.040 0.010 0 0.020-0.002 0.029-0.004l-0.001 0c2.865-0.892 5.358-2.182 7.566-3.832l-0.065 0.047c0.022-0.016 0.036-0.041 0.039-0.069l0-0c0.087-0.784 0.136-1.694 0.136-2.615 0-5.415-1.712-10.43-4.623-14.534l0.052 0.078c-0.008-0.016-0.022-0.029-0.038-0.036l-0-0z"/>
  </symbol>
  <symbol id="pinterest" viewBox="0 0 512 512" fill="currentColor" stroke="currentColor">
    <path d="M220.646,338.475C207.223,408.825,190.842,476.269,142.3,511.5
		c-14.996-106.33,21.994-186.188,39.173-270.971c-29.293-49.292,3.518-148.498,65.285-124.059
		c76.001,30.066-65.809,183.279,29.38,202.417c99.405,19.974,139.989-172.476,78.359-235.054
		C265.434-6.539,95.253,81.775,116.175,211.161c5.09,31.626,37.765,41.22,13.062,84.884c-57.001-12.65-74.005-57.6-71.822-117.533c3.53-98.108,88.141-166.787,173.024-176.293c107.34-12.014,208.081,39.398,221.991,140.376c15.67,113.978-48.442,237.412-163.23,228.529C258.085,368.704,245.023,353.283,220.646,338.475z"/>
  </symbol>
  <symbol id="messenger" viewBox="0 0 24 24" fill="currentColor" stroke="currentColor">
    <path d="M12.0015 2C6.36858 2 2 6.12644 2 11.7011C2 14.6169 3.1954 17.1356 5.14023 18.8751C5.30192 19.0215 5.40077 19.2238 5.40843 19.4444L5.4636 21.2245C5.46756 21.3554 5.50365 21.4833 5.56868 21.5969C5.63371 21.7106 5.7257 21.8065 5.83653 21.8762C5.94736 21.9459 6.07364 21.9873 6.20423 21.9968C6.33483 22.0062 6.46575 21.9834 6.58544 21.9303L8.57088 21.0552C8.74023 20.9816 8.92797 20.9671 9.10421 21.0146C10.0161 21.2651 10.987 21.4008 11.9985 21.4008C17.6314 21.4008 22 17.2751 22 11.7004C22 6.12644 17.6322 2 12.0015 2ZM17.2529 9.57854L14.7487 13.5502C14.6544 13.6997 14.5302 13.8281 14.3839 13.9272C14.2376 14.0263 14.0724 14.0941 13.8986 14.1262C13.7248 14.1583 13.5463 14.154 13.3742 14.1137C13.2021 14.0734 13.0403 13.9979 12.8989 13.892L10.9065 12.3992C10.8178 12.3329 10.71 12.2971 10.5992 12.2971C10.4885 12.2971 10.3807 12.3329 10.292 12.3992L7.60383 14.4398C7.24751 14.7119 6.77625 14.282 7.01533 13.9034L9.51954 9.9318C9.61378 9.7823 9.73796 9.65394 9.88427 9.55481C10.0306 9.45568 10.1958 9.38793 10.3696 9.35582C10.5434 9.32371 10.7219 9.32795 10.894 9.36826C11.0661 9.40857 11.2279 9.48408 11.3693 9.59004L13.3617 11.0828C13.4504 11.149 13.5582 11.1849 13.669 11.1849C13.7797 11.1849 13.8875 11.149 13.9762 11.0828L16.6644 9.04215C17.0245 8.76628 17.4958 9.19617 17.2529 9.57854Z"/>
  </symbol>
  <symbol id="slack" viewBox="0 0 24 24" fill="currentColor" stroke="currentColor">
    <path d="M9.06607 1C7.84995 1.0009 6.86574 1.98584 6.86664 3.19953C6.86574 4.41322 7.85085 5.39816 9.06697 5.39906H11.2673V3.20043C11.2682 1.98674 10.2831 1.00179 9.06607 1ZM9.06607 6.86661H3.20033C1.98422 6.8675 0.999104 7.85245 1 9.06614C0.998205 10.2798 1.98332 11.2648 3.19943 11.2666H9.06607C10.2822 11.2657 11.2673 10.2807 11.2664 9.06703C11.2673 7.85245 10.2822 6.8675 9.06607 6.86661Z"/>
    <path d="M23 9.06614C23.0009 7.85245 22.0158 6.8675 20.7996 6.86661C19.5835 6.8675 18.5984 7.85245 18.5993 9.06614V11.2666H20.7996C22.0158 11.2657 23.0009 10.2807 23 9.06614ZM17.1333 9.06614V3.19953C17.1342 1.98674 16.15 1.00179 14.9338 1C13.7177 1.0009 12.7326 1.98584 12.7335 3.19953V9.06614C12.7317 10.2798 13.7168 11.2648 14.9329 11.2666C16.1491 11.2657 17.1342 10.2807 17.1333 9.06614Z"/>
    <path d="M14.9329 23C16.149 22.9991 17.1341 22.0141 17.1332 20.8004C17.1341 19.5867 16.149 18.6018 14.9329 18.6009H12.7326V20.8004C12.7317 22.0133 13.7168 22.9982 14.9329 23ZM14.9329 17.1324H20.7996C22.0157 17.1315 23.0008 16.1466 22.9999 14.9329C23.0017 13.7192 22.0166 12.7342 20.8005 12.7324H14.9338C13.7177 12.7333 12.7326 13.7183 12.7335 14.932C12.7326 16.1466 13.7168 17.1315 14.9329 17.1324Z"/>
    <path d="M1.00024 14.9327C0.999346 16.1464 1.98446 17.1313 3.20058 17.1322C4.4167 17.1313 5.40182 16.1464 5.40092 14.9327V12.7331H3.20058C1.98446 12.734 0.999346 13.719 1.00024 14.9327ZM6.86691 14.9327V20.7993C6.86512 22.013 7.85023 22.998 9.06635 22.9998C10.2825 22.9989 11.2676 22.0139 11.2667 20.8002V14.9345C11.2685 13.7208 10.2834 12.7358 9.06725 12.734C7.85023 12.734 6.86601 13.719 6.86691 14.9327Z"/>
  </symbol>
  <symbol id="reddit" viewBox="0 0 20 20" fill="currentColor" stroke="none">
    <path d="M18 10.1c0-1-.8-1.8-1.8-1.7-.4 0-.9.2-1.2.5-1.4-.9-3-1.5-4.7-1.5l.8-3.8 2.6.6c0 .7.6 1.2 1.3 1.2.7 0 1.2-.6 1.2-1.3 0-.7-.6-1.2-1.3-1.2-.5 0-.9.3-1.1.7L11 2.9h-.2c-.1 0-.1.1-.1.2l-1 4.3C8 7.4 6.4 7.9 5 8.9c-.7-.7-1.8-.7-2.5 0s-.7 1.8 0 2.5c.1.1.3.3.5.3v.5c0 2.7 3.1 4.9 7 4.9s7-2.2 7-4.9v-.5c.6-.3 1-.9 1-1.6zM6 11.4c0-.7.6-1.2 1.2-1.2.7 0 1.2.6 1.2 1.2s-.6 1.2-1.2 1.2c-.7 0-1.2-.5-1.2-1.2zm7 3.3c-.9.6-1.9 1-3 .9-1.1 0-2.1-.3-3-.9-.1-.1-.1-.3 0-.5.1-.1.3-.1.4 0 .7.5 1.6.8 2.5.7.9.1 1.8-.2 2.5-.7.1-.1.3-.1.5 0s.2.3.1.5zm-.3-2.1c-.7 0-1.2-.6-1.2-1.2s.6-1.2 1.2-1.2c.7 0 1.2.6 1.2 1.2.1.7-.5 1.2-1.2 1.2z"/>
  </symbol>
  <symbol id="stackoverflow" viewBox="0 0 32 32" fill="currentColor" stroke="none">
    <path d="M8.696 23.002v2.662h13.321v-2.662h-13.321zM3.366 20.336v10.659h23.981v-10.659h-2.666v7.994h-18.652v-7.993h-2.663zM9.483 16.928l-0.55 2.616 13.087 2.75 0.55-2.614-13.087-2.753zM11.795 10.855l-1.131 2.424 12.124 5.645 1.13-2.424zM15.731 5.276l-1.711 2.054 10.278 8.56 1.711-2.054zM20.655 1.004l-2.149 1.596 7.985 10.732 2.144-1.596z"/>
  </symbol>
  <symbol id="medium" viewBox="0 0 24 24" fill="currentColor" stroke="currentColor">
    <path d="M13 12C13 15.3137 10.3137 18 7 18C3.68629 18 1 15.3137 1 12C1 8.68629 3.68629 6 7 6C10.3137 6 13 8.68629 13 12Z"/>
    <path d="M23 12C23 14.7614 22.5523 17 22 17C21.4477 17 21 14.7614 21 12C21 9.23858 21.4477 7 22 7C22.5523 7 23 9.23858 23 12Z"/>
    <path d="M17 18C18.6569 18 20 15.3137 20 12C20 8.68629 18.6569 6 17 6C15.3431 6 14 8.68629 14 12C14 15.3137 15.3431 18 17 18Z"/>
  </symbol>
  <symbol id="mail" viewBox="0 0 20 20" fill="currentColor" stroke="currentColor">
    <path d="M2.003 5.884L10 9.882l7.997-3.998A2 2 0 0016 4H4a2 2 0 00-1.997 1.884z"/>
    <path d="M18 8.118l-8 4-8-4V14a2 2 0 002 2h12a2 2 0 002-2V8.118z"/>
  </symbol>
</svg>